<svg id="Nav_element" data-name="Nav element" xmlns="http://www.w3.org/2000/svg" width="162" height="50" viewBox="0 0 162 50">
  <g id="Group_241" data-name="Group 241" transform="translate(111 12.24)">
    <line id="Line_47" data-name="Line 47" x2="39.218" fill="none" stroke="#0021a4" stroke-width="5"/>
    <line id="Line_48" data-name="Line 48" x2="39.218" transform="translate(0 12.441)" fill="none" stroke="#0021a4" stroke-width="5"/>
    <line id="Line_49" data-name="Line 49" x2="39.218" transform="translate(0 24.881)" fill="none" stroke="#0021a4" stroke-width="5"/>
  </g>
  <path id="Path_210" data-name="Path 210" d="M1.44,0H2.7V-5.52c0-1.088-.1-2.224-.176-3.28h.064c.352.768.736,1.552,1.136,2.256L7.472,0h1.44V-10.5H7.648v5.472c0,1.088.1,2.24.176,3.328H7.76c-.368-.768-.736-1.552-1.136-2.256L2.88-10.5H1.44ZM13.6-5.856c.368-1.168.7-2.32,1.024-3.536h.064c.336,1.216.672,2.368,1.056,3.536l.5,1.584H13.1ZM10.384,0h1.36l1.008-3.184h3.824L17.568,0h1.424L15.456-10.5H13.92ZM22.112,0h1.552l3.408-10.5H25.7L23.952-4.832c-.368,1.232-.624,2.24-1.008,3.456H22.88c-.38-1.216-.656-2.224-1.008-3.456L20.24-10.5H18.816Zm6.4,0h1.344V-10.5H28.512Zm8.336.192A4.534,4.534,0,0,0,40.1-1.024V-5.44H36.64v1.1h2.224V-1.6a2.872,2.872,0,0,1-1.888.608C34.736-.992,33.5-2.64,33.5-5.28c0-2.608,1.348-4.22,3.46-4.22a2.939,2.939,0,0,1,2.256.944l.736-.832a3.977,3.977,0,0,0-3.024-1.3c-2.784,0-4.816,2.064-4.816,5.44C32.112-1.824,34.08.192,36.848.192Zm7.5-6.048c.368-1.168.7-2.32,1.024-3.536h.064c.336,1.216.672,2.368,1.056,3.536l.5,1.584H43.856ZM41.136,0H42.5l1-3.184h3.824L48.32,0h1.424L46.208-10.5H44.672ZM52.528,0h1.344V-9.36h3.184V-10.5h-7.7v1.14h3.168Zm6.4,0h1.344V-10.5H58.928Zm8.08.192c2.64,0,4.5-2.112,4.5-5.488,0-3.344-1.856-5.392-4.5-5.392s-4.48,2.032-4.48,5.392C62.528-1.92,64.368.192,67.008.192Zm0-1.184c-1.872,0-3.088-1.68-3.088-4.3S65.136-9.5,67.008-9.5s3.1,1.6,3.1,4.208S68.88-.992,67.008-.992ZM73.76,0h1.264V-5.52c0-1.088-.1-2.224-.176-3.28h.064c.352.768.736,1.552,1.136,2.256L79.792,0h1.44V-10.5H79.968v5.472c0,1.088.1,2.24.176,3.328H80.08c-.368-.768-.736-1.552-1.136-2.256L75.2-10.5H73.76Z" transform="translate(12.5 30.138)" fill="#0021a4"/>
  <g id="Rectangle_1278" data-name="Rectangle 1278" fill="none" stroke="#0021a5" stroke-width="2">
    <rect width="162" height="50" stroke="none"/>
    <rect x="1" y="1" width="160" height="48" fill="none"/>
  </g>
</svg>
